HIERARCHY
ROOT Hips
{
	OFFSET 0.00000 0.00000 0.00000
	CHANNELS 6 Xposition Yposition Zposition Zrotation Yrotation Xrotation 
	JOINT LHipJoint
	{
		OFFSET 0 0 0
		CHANNELS 3 Zrotation Yrotation Xrotation
		JOINT LeftUpLeg
		{
			OFFSET 1.60223 -1.58443 0.78595
			CHANNELS 3 Zrotation Yrotation Xrotation
			JOINT LeftLeg
			{
				OFFSET 2.21690 -6.09089 0.00000
				CHANNELS 3 Zrotation Yrotation Xrotation
				JOINT LeftFoot
				{
					OFFSET 2.34805 -6.45122 0.00000
					CHANNELS 3 Zrotation Yrotation Xrotation
					JOINT LeftToeBase
					{
						OFFSET 0.35452 -0.97402 1.38549
						CHANNELS 3 Zrotation Yrotation Xrotation
						End Site
						{
							OFFSET 0.00000 -0.00000 0.82816
						}
					}
				}
			}
		}
	}
	JOINT RHipJoint
	{
		OFFSET 0 0 0
		CHANNELS 3 Zrotation Yrotation Xrotation
		JOINT RightUpLeg
		{
			OFFSET -1.56524 -1.58443 0.78595
			CHANNELS 3 Zrotation Yrotation Xrotation
			JOINT RightLeg
			{
				OFFSET -2.15558 -5.92241 0.00000
				CHANNELS 3 Zrotation Yrotation Xrotation
				JOINT RightFoot
				{
					OFFSET -2.35077 -6.45870 0.00000
					CHANNELS 3 Zrotation Yrotation Xrotation
					JOINT RightToeBase
					{
						OFFSET -0.26910 -0.73935 1.33295
						CHANNELS 3 Zrotation Yrotation Xrotation
						End Site
						{
							OFFSET -0.00000 -0.00000 0.75962
						}
					}
				}
			}
		}
	}
	JOINT LowerBack
	{
		OFFSET 0 0 0
		CHANNELS 3 Zrotation Yrotation Xrotation
		JOINT Spine
		{
			OFFSET -0.05489 1.97104 -0.02993
			CHANNELS 3 Zrotation Yrotation Xrotation
			JOINT Spine1
			{
				OFFSET -0.00702 1.94230 0.13626
				CHANNELS 3 Zrotation Yrotation Xrotation
				JOINT Neck
				{
					OFFSET 0 0 0
					CHANNELS 3 Zrotation Yrotation Xrotation
					JOINT Neck1
					{
						OFFSET -0.07858 1.62869 -0.02510
						CHANNELS 3 Zrotation Yrotation Xrotation
						JOINT Head
						{
							OFFSET 0.13978 1.59213 -0.29859
							CHANNELS 3 Zrotation Yrotation Xrotation
							End Site
							{
								OFFSET 0.05353 1.64420 -0.10000
							}
						}
					}
				}
				JOINT LeftShoulder
				{
					OFFSET 0 0 0
					CHANNELS 3 Zrotation Yrotation Xrotation
					JOINT LeftArm
					{
						OFFSET 3.48263 1.15278 0.52941
						CHANNELS 3 Zrotation Yrotation Xrotation
						JOINT LeftForeArm
						{
							OFFSET 4.59207 -0.00000 -0.00000
							CHANNELS 3 Zrotation Yrotation Xrotation
							JOINT LeftHand
							{
								OFFSET 2.98109 -0.00000 -0.00000
								CHANNELS 3 Zrotation Yrotation Xrotation
								JOINT LeftFingerBase
								{
									OFFSET 0 0 0
									CHANNELS 3 Zrotation Yrotation Xrotation
									JOINT LeftHandIndex1
									{
										OFFSET 0.48020 -0.00000 -0.00000
										CHANNELS 3 Zrotation Yrotation Xrotation
										End Site
										{
											OFFSET 0.38715 -0.00000 -0.00000
										}
									}
								}
								JOINT LThumb
								{
									OFFSET 0 0 0
									CHANNELS 3 Zrotation Yrotation Xrotation
									End Site
									{
										OFFSET 0.39306 -0.00000 0.39306
									}
								}
							}
						}
					}
				}
				JOINT RightShoulder
				{
					OFFSET 0 0 0
					CHANNELS 3 Zrotation Yrotation Xrotation
					JOINT RightArm
					{
						OFFSET -3.52496 1.12722 0.24548
						CHANNELS 3 Zrotation Yrotation Xrotation
						JOINT RightForeArm
						{
							OFFSET -4.76508 -0.00000 -0.00000
							CHANNELS 3 Zrotation Yrotation Xrotation
							JOINT RightHand
							{
								OFFSET -2.78902 -0.00000 -0.00000
								CHANNELS 3 Zrotation Yrotation Xrotation
								JOINT RightFingerBase
								{
									OFFSET 0 0 0
									CHANNELS 3 Zrotation Yrotation Xrotation
									JOINT RightHandIndex1
									{
										OFFSET -0.72130 -0.00000 -0.00000
										CHANNELS 3 Zrotation Yrotation Xrotation
										End Site
										{
											OFFSET -0.58153 -0.00000 -0.00000
										}
									}
								}
								JOINT RThumb
								{
									OFFSET 0 0 0
									CHANNELS 3 Zrotation Yrotation Xrotation
									End Site
									{
										OFFSET -0.59041 -0.00000 0.59041
									}
								}
							}
						}
					}
				}
			}
		}
	}
}
MOTION
Frames: 6
Frame Time: .0083333
-0.2382 15.6876 6.1349 -1083.3500 -692.3710 7.1137 0.0000 0.0000 0.0000 -5.3463 -26.5323 -33.8472 12.9347 18.7585 68.9226 0.6714 -2.9274 -14.7602 8.3246 -16.3529 -53.7235 0.0000 0.0000 0.0000 23.2360 14.5811 -12.2909 -2.4609 -9.7664 28.2235 -0.2789 -3.6453 -12.0000 -13.5020 -18.9560 70.6776 -2.7871 4.0944 5.9795 -3.4090 4.9288 -8.9482 -3.0317 2.4444 -13.0251 -15.2093 -9.4863 4.7652 36.8091 -14.4742 0.6731 14.6556 -7.3628 3.6021 -0.0000 -0.0000 0.0000 -83.0706 -2.2630 73.0496 120.7900 -56.0957 -86.3154 -0.0000 -0.0000 18.8937 62.5555 56.5393 58.0974 -7.1250 0.0000 -0.0000 171.7620 -76.8766 -173.8396 -0.0000 -0.0000 0.0000 -44.5177 27.9487 -99.2302 -91.4000 59.9926 -61.2124 0.0000 -0.0000 -5.4368 -12.8630 48.9348 -9.7687 7.1250 -0.0000 -0.0000 12.9765 18.6116 16.7858
0.0929 15.7954 6.0854 -1083.0200 -700.0060 7.4248 0.0000 0.0000 0.0000 -4.4919 -30.3772 -31.4914 11.7387 18.2780 65.1582 0.8751 -8.6821 -16.8621 10.8946 -17.8831 -62.4389 0.0000 0.0000 0.0000 21.3292 15.1972 -11.4688 -2.0959 -9.0630 25.9926 -0.3989 1.8567 -11.4310 -13.4625 -18.9428 70.5561 -3.2021 4.2676 6.4160 -3.3771 5.0637 -9.6580 -2.9030 2.5268 -14.1885 -14.5326 -10.2445 6.3276 35.9206 -15.7694 0.8857 14.0545 -8.1519 3.5677 -0.0000 -0.0000 0.0000 -83.0745 -0.9476 75.1856 121.8584 -55.7941 -87.2006 -0.0000 -0.0000 17.6445 71.0573 55.2543 67.3304 -7.1250 0.0000 -0.0000 166.1691 -72.4608 -170.9310 -0.0000 -0.0000 0.0000 -42.3860 26.2124 -100.1782 -90.6700 59.9983 -60.5802 0.0000 -0.0000 -3.9355 -17.3797 47.3279 -12.9596 7.1250 -0.0000 -0.0000 10.6277 17.9732 13.5781
0.4394 15.9102 6.0459 -1082.4800 -707.7600 7.7164 0.0000 0.0000 0.0000 -4.4479 -33.9194 -28.9266 10.4863 17.6744 61.1018 0.5731 -14.2341 -15.6975 11.4997 -18.1711 -64.3940 0.0000 0.0000 0.0000 19.1194 15.4180 -11.1426 -1.7550 -8.3360 23.7392 -0.3265 7.4996 -10.7107 -13.4044 -18.9233 70.3769 -4.0823 4.3103 6.8201 -3.0379 4.9836 -10.3061 -2.1343 2.5842 -15.3663 -13.8715 -11.0765 6.5893 34.0719 -17.3631 2.4490 12.9595 -8.8664 4.1128 -0.0000 -0.0000 0.0000 -83.6247 0.6565 77.1462 122.4992 -55.6063 -87.7300 -0.0000 -0.0000 16.1418 77.8869 53.0283 74.9635 -7.1250 0.0000 -0.0000 162.0899 -68.6101 -169.7330 -0.0000 -0.0000 0.0000 -40.5600 25.4636 -100.6652 -90.6390 59.9985 -60.5534 0.0000 -0.0000 -3.0881 -20.1031 45.3951 -14.6056 7.1250 -0.0000 -0.0000 8.9481 16.7225 11.2582
0.8049 16.0024 6.0121 -1082.2900 -715.6530 7.6301 0.0000 0.0000 0.0000 -5.0302 -37.3094 -25.2370 9.3201 17.0094 57.1908 -0.3807 -20.7410 -11.3459 11.3663 -18.1097 -63.9654 0.0000 0.0000 0.0000 17.2937 15.4233 -11.2647 -1.5113 -7.7639 21.9992 -0.0788 12.8940 -10.0332 -13.2578 -18.8733 69.9242 -4.4926 4.2971 7.3912 -2.4318 4.9131 -10.7933 -1.3167 2.6259 -16.4526 -13.1300 -11.9718 6.0134 31.2820 -19.0750 4.9410 11.4567 -9.5098 4.9611 -0.0000 -0.0000 0.0000 -84.4203 2.5072 78.8511 122.8976 -55.4870 -88.0585 -0.0000 -0.0000 14.2607 84.2577 50.1977 82.5428 -7.1250 0.0000 -0.0000 159.1919 -64.3796 -170.0285 -0.0000 -0.0000 0.0000 -38.6764 25.3654 -100.1100 -91.0825 59.9956 -60.9375 0.0000 -0.0000 -1.0691 -24.0929 42.1849 -16.7144 7.1250 -0.0000 -0.0000 6.3085 14.5763 7.7334
1.1832 16.0754 5.9851 -1082.1300 -723.6980 7.3892 0.0000 0.0000 0.0000 -6.1685 -38.7246 -21.8621 8.2889 16.3277 53.5968 -1.5764 -25.3807 -4.9547 10.2926 -17.5712 -60.4620 0.0000 0.0000 0.0000 15.6930 14.4863 -12.1828 -1.3437 -7.3390 20.7237 0.3704 18.6805 -9.5479 -13.0807 -18.8111 69.3759 -4.5637 4.2734 8.1213 -1.9567 4.8564 -11.1416 -0.8231 2.6291 -17.4367 -12.1736 -12.6544 5.8084 28.6518 -20.2424 6.8205 10.1486 -9.9747 5.3996 0.0000 0.0000 0.0000 -85.0322 4.4101 80.2569 122.9069 -55.4842 -88.0662 -0.0000 -0.0000 13.2046 88.6606 48.3066 88.2065 -7.1250 0.0000 -0.0000 158.4909 -60.9426 -171.4178 0.0000 0.0000 0.0000 -36.0837 25.5322 -98.3317 -92.5461 59.9755 -62.2048 0.0000 0.0000 0.7125 -28.2170 36.9863 -17.8910 7.1250 -0.0000 -0.0000 3.0375 10.4926 3.5443
1.5668 16.1423 5.9728 -1082.0300 -732.0260 7.0891 0.0000 0.0000 0.0000 -8.0755 -37.2795 -18.4521 7.4581 15.7058 50.5865 -2.4382 -28.0770 0.3149 9.4767 -17.1049 -57.7247 0.0000 0.0000 0.0000 14.3883 14.8232 -13.1988 -1.2846 -7.1823 20.2565 0.8107 21.5605 -7.9253 -12.8690 -18.7343 68.7181 -4.4621 4.2257 9.0748 -1.5334 4.7797 -11.4701 -0.4831 2.5978 -18.5382 -11.3008 -13.1327 6.0825 26.3373 -20.9978 8.1732 9.1157 -10.3248 5.5374 0.0000 -0.0000 0.0000 -85.3448 6.0553 81.1625 122.5478 -55.5919 -87.7700 -0.0000 -0.0000 12.2714 94.5432 -46.4383 -96.2579 -7.1250 0.0000 -0.0000 159.4182 -55.7823 -174.3841 0.0000 -0.0000 0.0000 -32.7943 26.0748 -95.4340 -94.9183 59.9084 -64.2581 0.0000 0.0000 1.7831 -31.7700 31.1596 -17.7676 7.1250 -0.0000 -0.0000 -0.1468 5.4418 -0.1600
